<?xml version="1.0" standalone="no"?>
<!DOCTYPE svg PUBLIC "-//W3C//DTD SVG 20010904//EN"
 "http://www.w3.org/TR/2001/REC-SVG-20010904/DTD/svg10.dtd">
<svg version="1.0" xmlns="http://www.w3.org/2000/svg"
 width="200.000000pt" height="88.000000pt" viewBox="0 0 200.000000 88.000000"
 preserveAspectRatio="xMidYMid meet">

<g transform="translate(0.000000,88.000000) scale(0.100000,-0.100000)"
fill="#000000" stroke="none">
<path d="M1670 795 c0 -21 5 -25 28 -25 38 -1 111 -36 151 -73 39 -37 81 -120
81 -159 0 -24 4 -28 26 -28 26 0 27 1 21 45 -19 132 -158 265 -279 265 -23 0
-28 -4 -28 -25z"/>
<path d="M1670 688 c0 -20 6 -27 30 -31 16 -4 41 -14 56 -23 26 -18 64 -81 64
-109 0 -10 9 -15 26 -15 24 0 26 2 20 32 -17 83 -83 152 -159 165 -34 5 -37 4
-37 -19z"/>
<path d="M310 545 c0 -21 5 -25 30 -25 25 0 30 4 30 25 0 21 -5 25 -30 25 -25
0 -30 -4 -30 -25z"/>
<path d="M1220 385 l0 -185 30 0 30 0 0 185 0 185 -30 0 -30 0 0 -185z"/>
<path d="M1360 546 c0 -22 4 -26 31 -26 26 0 30 3 27 23 -2 16 -11 23 -30 25
-24 3 -28 0 -28 -22z"/>
<path d="M1556 560 c-37 -11 -46 -25 -46 -72 0 -31 -4 -38 -20 -38 -11 0 -20
-7 -20 -15 0 -8 9 -15 20 -15 19 0 20 -7 20 -110 l0 -110 25 0 25 0 0 110 0
110 30 0 c20 0 30 5 30 15 0 10 -10 15 -30 15 -26 0 -30 4 -30 28 0 32 16 52
42 52 11 0 18 7 18 20 0 22 -16 24 -64 10z"/>
<path d="M1680 540 c0 -25 4 -30 25 -30 21 0 25 5 25 30 0 25 -4 30 -25 30
-21 0 -25 -5 -25 -30z"/>
<path d="M50 448 c-20 -11 -26 -22 -28 -57 -4 -55 17 -81 67 -82 72 -3 96 -12
96 -38 0 -19 -7 -26 -28 -32 -33 -9 -75 4 -83 26 -7 17 -64 21 -64 4 0 -15 21
-53 34 -61 6 -4 45 -8 87 -8 66 0 78 3 97 23 47 50 15 127 -52 127 -18 0 -48
3 -65 6 -27 6 -32 11 -29 33 3 23 8 26 46 29 31 2 44 -1 48 -12 8 -20 64 -22
64 -3 0 7 -6 22 -14 32 -18 24 -137 33 -176 13z"/>
<path d="M317 453 c-4 -3 -7 -62 -7 -130 l0 -123 30 0 30 0 0 130 c0 130 0
130 -23 130 -13 0 -27 -3 -30 -7z"/>
<path d="M450 330 l0 -130 30 0 30 0 0 94 c0 105 8 119 62 114 l33 -3 3 -102
3 -103 29 0 30 0 0 89 c0 100 10 121 61 121 39 0 49 -27 49 -131 l0 -79 31 0
31 0 -4 106 c-3 102 -5 107 -31 130 -34 29 -85 31 -118 5 -24 -19 -25 -19 -48
0 -28 23 -78 25 -108 4 -19 -13 -22 -13 -27 0 -3 8 -17 15 -31 15 l-25 0 0
-130z"/>
<path d="M917 453 c-4 -3 -7 -96 -7 -205 l0 -199 32 3 31 3 -2 88 c-1 48 1 87
4 87 4 0 13 -7 21 -15 19 -19 103 -20 128 -2 42 31 39 194 -4 229 -30 25 -91
23 -124 -3 l-26 -20 0 20 c0 15 -6 21 -23 21 -13 0 -27 -3 -30 -7z m164 -59
c21 -25 16 -124 -7 -141 -21 -16 -48 -17 -75 -3 -16 9 -19 22 -19 73 0 36 5
68 12 75 17 17 73 15 89 -4z"/>
<path d="M1360 331 l0 -131 30 0 31 0 -3 128 -3 127 -27 3 -28 3 0 -130z"/>
<path d="M1680 325 l0 -125 25 0 25 0 0 125 0 125 -25 0 -25 0 0 -125z"/>
<path d="M1602 105 c-1 -36 1 -46 8 -35 9 13 12 12 25 -4 8 -11 15 -15 15 -10
0 6 -5 15 -12 22 -8 8 -8 15 3 29 13 17 12 16 -8 0 -21 -19 -22 -19 -26 15 -3
25 -4 21 -5 -17z"/>
<path d="M1210 102 c0 -22 3 -43 8 -45 8 -6 7 71 -2 80 -3 4 -6 -12 -6 -35z"/>
<path d="M1013 85 c0 -22 2 -30 4 -17 2 12 2 30 0 40 -3 9 -5 -1 -4 -23z"/>
<path d="M1030 116 c0 -2 7 -7 16 -10 8 -3 12 -2 9 4 -6 10 -25 14 -25 6z"/>
<path d="M1120 116 c0 -2 9 -6 20 -9 11 -3 18 -1 14 4 -5 9 -34 13 -34 5z"/>
<path d="M1438 110 c12 -5 22 -15 22 -21 0 -7 3 -9 6 -6 10 10 -16 37 -35 36
-11 0 -9 -3 7 -9z"/>
<path d="M1705 110 c-9 -14 3 -30 22 -30 10 0 13 -6 8 -17 -5 -14 -3 -15 6 -6
14 14 4 33 -18 33 -9 0 -13 6 -9 15 6 17 0 20 -9 5z"/>
<path d="M1512 85 c0 -16 2 -22 5 -12 2 9 2 23 0 30 -3 6 -5 -1 -5 -18z"/>
<path d="M1110 81 c0 -11 4 -22 9 -25 4 -3 6 6 3 19 -5 30 -12 33 -12 6z"/>
<path d="M1410 81 c0 -11 4 -22 9 -25 4 -3 6 6 3 19 -5 30 -12 33 -12 6z"/>
<path d="M1347 73 c-4 -3 -7 -11 -7 -17 0 -6 5 -5 12 2 6 6 9 14 7 17 -3 3 -9
2 -12 -2z"/>
<path d="M1295 60 c3 -5 8 -10 11 -10 2 0 4 5 4 10 0 6 -5 10 -11 10 -5 0 -7
-4 -4 -10z"/>
</g>
</svg>
